# xmcd CD database file
#
# Track frame offsets:
#	150
#	29559
#	49103
#	70958
#	104075
#	112980
#	132151
#	162836
#	185908
#
# Disc length: 2828 seconds
#
# Revision: 0
# Processed by: cddbd v1.5.2PL0 Copyright (c) Steve Scherf et al.
# Submitted via: CDex 1.70beta2
#
DISCID=830b0a09
DTITLE=Tomer Baruch Quintet - The Nature Of Not Knowing
DYEAR=2009
DGENRE=Jazz
TTITLE0=The Nature Of Not Knowing/Whisper
TTITLE1=Talkin' 1
TTITLE2=The Nature Of Not Knowing
TTITLE3=Song
TTITLE4=Talkin' 2
TTITLE5=Cry
TTITLE6=Blues
TTITLE7=The Nature Of Not Knowing
TTITLE8=Morning
EXTD=YEAR: 2009
EXTT0=
EXTT1=
EXTT2=
EXTT3=
EXTT4=
EXTT5=
EXTT6=
EXTT7=
EXTT8=
PLAYORDER=
